<?xml version="1.0" encoding="utf-8"?>
<!-- Generator: Adobe Illustrator 26.0.0, SVG Export Plug-In . SVG Version: 6.00 Build 0)  -->
<svg version="1.1" id="레이어_1" xmlns="http://www.w3.org/2000/svg" xmlns:xlink="http://www.w3.org/1999/xlink" x="0px"
	 y="0px" viewBox="0 0 500 500" style="enable-background:new 0 0 500 500;" xml:space="preserve">
<style type="text/css">
	.st0{fill:#FFFFFF;}
</style>
<path class="st0" d="M34.8,267c-4.3-4.3-7-10.4-7-17c0-13.3,10.8-24,24-24l396.5,0c13.3,0,24,10.8,24,24c0,13.3-10.8,24-24,24
	l-396.5,0C45.1,274,39.1,271.3,34.8,267z"/>
<path class="st0" d="M233,465.2c-4.3-4.3-7-10.4-7-17l0-396.5c0-13.3,10.8-24,24-24c13.3,0,24,10.8,24,24l0,396.5
	c0,13.3-10.8,24-24,24C243.4,472.2,237.4,469.6,233,465.2z"/>
</svg>
